<?xml version="1.0" encoding="UTF-8" standalone="no"?>
<!-- Created with Inkscape (http://www.inkscape.org/) -->

<svg
   version="1.1"
   id="svg18"
   width="86.485924"
   height="97.166214"
   viewBox="0 0 86.485924 97.166214"
   sodipodi:docname="icone"
   inkscape:version="1.2.2 (732a01da63, 2022-12-09, custom)"
   inkscape:export-filename="../8fb2956d/logomaior.png"
   inkscape:export-xdpi="147.23982"
   inkscape:export-ydpi="147.23982"
   xmlns:inkscape="http://www.inkscape.org/namespaces/inkscape"
   xmlns:sodipodi="http://sodipodi.sourceforge.net/DTD/sodipodi-0.dtd"
   xmlns="http://www.w3.org/2000/svg"
   xmlns:svg="http://www.w3.org/2000/svg">
  <defs
     id="defs22" />
  <sodipodi:namedview
     id="namedview20"
     pagecolor="#ffffff"
     bordercolor="#666666"
     borderopacity="1.0"
     inkscape:showpageshadow="2"
     inkscape:pageopacity="0.0"
     inkscape:pagecheckerboard="0"
     inkscape:deskcolor="#d1d1d1"
     showgrid="false"
     inkscape:zoom="2.834084"
     inkscape:cx="178.18809"
     inkscape:cy="79.390731"
     inkscape:window-width="1320"
     inkscape:window-height="731"
     inkscape:window-x="0"
     inkscape:window-y="0"
     inkscape:window-maximized="1"
     inkscape:current-layer="g24" />
  <g
     inkscape:groupmode="layer"
     inkscape:label="Image"
     id="g24"
     transform="translate(-94.785021,-121.64709)">
    <path
       style="fill:#d40000"
       d="m 135.40097,218.78326 c -0.33433,-0.33432 -0.60787,-1.33138 -0.60787,-2.21568 0,-1.17194 3.4405,-2.74672 12.69108,-5.80892 6.98009,-2.31061 12.81063,-4.08156 12.95674,-3.93544 0.14611,0.14611 -5.29133,3.03366 -12.08321,6.41678 -6.79188,3.38312 -12.62241,5.87759 -12.95674,5.54326 z m -26.53376,-3.9683 c -0.56095,-2.03158 -0.87702,-3.83665 -0.70239,-4.01129 0.46585,-0.46584 52.95961,-9.29695 53.29128,-8.96527 0.27111,0.27111 -49.92715,16.67033 -51.02811,16.67033 -0.29749,0 -0.99984,-1.6622 -1.56078,-3.69377 z M 95.912884,194.25873 c 0.981026,-7.2875 3.017949,-22.81509 4.526496,-34.50577 1.50855,-11.69067 3.02699,-21.71556 3.37431,-22.27755 0.57455,-0.92963 12.87048,-3.44305 13.49545,-2.75861 0.14661,0.16056 -1.97864,13.71031 -4.72278,30.11056 -2.74414,16.40024 -4.76565,30.04232 -4.49224,30.31572 0.2734,0.27341 2.23002,0.0364 4.34804,-0.52664 5.87847,-1.56274 38.8637,-5.1064 47.53807,-5.10709 l 7.68713,-6.2e-4 -0.56737,3.75 c -0.31205,2.0625 -0.84626,4.03778 -1.18713,4.3895 -0.53105,0.54797 -67.682681,9.93102 -70.701709,9.87911 -0.741312,-0.0128 -0.520382,-4.19019 0.701733,-13.26861 z m 18.375566,-4.94422 c 0.33379,-1.81818 2.73835,-16.13078 5.34346,-31.80578 l 4.73657,-28.5 28.28293,-3.84605 c 15.55561,-2.11532 28.42595,-3.69032 28.60076,-3.5 0.5192,0.5653 -9.89815,61.63093 -10.63907,62.36535 -0.374,0.37072 -11.849,2.19067 -25.5,4.04433 -13.651,1.85366 -26.3076,3.63526 -28.12578,3.95911 -3.27858,0.58397 -3.30078,0.56162 -2.69887,-2.71696 z"
       id="path186"
       sodipodi:nodetypes="ssssssscssssscssscscsscssscccssss" />
  </g>
</svg>
