<?xml version="1.0" encoding="UTF-8" standalone="no"?>
<!-- Created with Inkscape (http://www.inkscape.org/) -->

<svg
   version="1.1"
   id="svg18"
   width="325.99875"
   height="97.166214"
   viewBox="0 0 325.99875 97.166214"
   sodipodi:docname="logo"
   inkscape:version="1.2.2 (732a01da63, 2022-12-09, custom)"
   xmlns:inkscape="http://www.inkscape.org/namespaces/inkscape"
   xmlns:sodipodi="http://sodipodi.sourceforge.net/DTD/sodipodi-0.dtd"
   xmlns="http://www.w3.org/2000/svg"
   xmlns:svg="http://www.w3.org/2000/svg">
  <defs
     id="defs22" />
  <sodipodi:namedview
     id="namedview20"
     pagecolor="#ffffff"
     bordercolor="#666666"
     borderopacity="1.0"
     inkscape:showpageshadow="2"
     inkscape:pageopacity="0.0"
     inkscape:pagecheckerboard="0"
     inkscape:deskcolor="#d1d1d1"
     showgrid="false"
     inkscape:zoom="1.002"
     inkscape:cx="196.60679"
     inkscape:cy="128.74251"
     inkscape:window-width="1320"
     inkscape:window-height="731"
     inkscape:window-x="0"
     inkscape:window-y="0"
     inkscape:window-maximized="1"
     inkscape:current-layer="g24" />
  <g
     inkscape:groupmode="layer"
     inkscape:label="Image"
     id="g24"
     transform="translate(-94.785021,-121.64709)">
    <path
       style="fill:#d40000"
       d="m 135.40097,218.78326 c -0.33433,-0.33432 -0.60787,-1.33138 -0.60787,-2.21568 0,-1.17194 3.4405,-2.74672 12.69108,-5.80892 6.98009,-2.31061 12.81063,-4.08156 12.95674,-3.93544 0.14611,0.14611 -5.29133,3.03366 -12.08321,6.41678 -6.79188,3.38312 -12.62241,5.87759 -12.95674,5.54326 z m -26.53376,-3.9683 c -0.56095,-2.03158 -0.87702,-3.83665 -0.70239,-4.01129 0.46585,-0.46584 52.95961,-9.29695 53.29128,-8.96527 0.27111,0.27111 -49.92715,16.67033 -51.02811,16.67033 -0.29749,0 -0.99984,-1.6622 -1.56078,-3.69377 z M 95.912884,194.25873 c 0.981026,-7.2875 3.017949,-22.81509 4.526496,-34.50577 1.50855,-11.69067 3.02699,-21.71556 3.37431,-22.27755 0.57455,-0.92963 12.87048,-3.44305 13.49545,-2.75861 0.14661,0.16056 -1.97864,13.71031 -4.72278,30.11056 -2.74414,16.40024 -4.76565,30.04232 -4.49224,30.31572 0.2734,0.27341 2.23002,0.0364 4.34804,-0.52664 5.87847,-1.56274 38.8637,-5.1064 47.53807,-5.10709 l 7.68713,-6.2e-4 -0.56737,3.75 c -0.31205,2.0625 -0.84626,4.03778 -1.18713,4.3895 -0.53105,0.54797 -67.682681,9.93102 -70.701709,9.87911 -0.741312,-0.0128 -0.520382,-4.19019 0.701733,-13.26861 z m 275.194036,0.29977 c -3.09182,-1.88522 -5.31382,-4.80562 -5.31382,-6.98403 0,-1.64465 7.57812,-1.279 9,0.43426 1.62842,1.96212 6.43576,1.92138 8.42857,-0.0714 0.86429,-0.86428 1.57143,-2.94104 1.57143,-4.61501 0,-3.00505 -0.0312,-3.02313 -2.46482,-1.42857 -3.13178,2.05202 -9.42662,2.07978 -12.31839,0.0543 -3.2789,-2.29666 -5.21679,-6.73177 -5.21679,-11.93932 0,-5.20755 1.93789,-9.64266 5.21679,-11.9393 2.86347,-2.00564 9.69984,-2.00782 12.5607,-0.004 2.01155,1.40894 2.22251,1.40894 2.22251,0 0,-1.14948 1.04635,-1.5567 4,-1.5567 h 4 v 15.03212 c 0,16.96724 -0.97967,20.87176 -5.87156,23.40146 -4.23131,2.18809 -11.90192,2.00193 -15.81462,-0.38381 z m 12.12948,-20.27228 c 3.22078,-4.59831 0.67326,-10.77749 -4.4433,-10.77749 -3.17863,0 -6,3.05649 -6,6.5 0,3.44351 2.82137,6.5 6,6.5 1.8493,0 3.44599,-0.79865 4.4433,-2.22251 z m -268.94795,15.02829 c 0.33379,-1.81818 2.73835,-16.13078 5.34346,-31.80578 l 4.73657,-28.5 28.28293,-3.84605 c 15.55561,-2.11532 28.42595,-3.69032 28.60076,-3.5 0.5192,0.5653 -9.89815,61.63093 -10.63907,62.36535 -0.374,0.37072 -11.849,2.19067 -25.5,4.04433 -13.651,1.85366 -26.3076,3.63526 -28.12578,3.95911 -3.27858,0.58397 -3.30078,0.56162 -2.69887,-2.71696 z m 89.50465,-22.80578 v -17 h 4 4 v 6.5 6.5 h 6.5 6.5 v -6.5 -6.5 h 4.5 4.5 v 17 17 h -4.5 -4.5 v -7 -7 h -6.5 -6.5 v 7 7 h -4 -4 z m 38.63584,14.53831 c -1.46092,-1.35393 -3.10163,-3.63323 -3.64603,-5.0651 -2.29567,-6.03808 -0.2791,-14.75632 4.12706,-17.84252 2.94967,-2.06602 9.75977,-2.10582 12.66062,-0.074 2.01155,1.40894 2.22251,1.40894 2.22251,0 0,-1.14948 1.04635,-1.5567 4,-1.5567 h 4 v 13.5 13.5 h -4 c -2.95365,0 -4,-0.40722 -4,-1.5567 0,-1.40894 -0.21096,-1.40894 -2.22251,0 -3.50338,2.45386 -10.00013,2.00647 -13.14165,-0.90499 z m 13.53542,-6.1933 c 2.27863,-2.06213 2.37042,-7.08898 0.17375,-9.51627 -2.31166,-2.55435 -6.8663,-2.35028 -8.78831,0.39377 -4.57524,6.53207 2.8216,14.36506 8.61456,9.1225 z m 19.65473,6.94287 c -2.22811,-1.38227 -4.82599,-5.06159 -4.82599,-6.83493 0,-1.23462 7.90253,-0.27532 9.04196,1.09761 1.58551,1.91042 6.45804,1.52027 6.45804,-0.5171 0,-0.9082 -1.90359,-1.99472 -5,-2.85388 -7.91374,-2.19581 -10.96605,-6.19555 -8.87882,-11.63478 0.96733,-2.52081 5.82427,-4.5448 10.90608,-4.5448 3.78026,0 5.16129,0.53471 7.54966,2.92308 3.99738,3.99737 3.84185,6.07692 -0.45448,6.07692 -1.85765,0 -3.93775,-0.675 -4.62244,-1.5 -1.75662,-2.1166 -6.24367,-1.99678 -5.82332,0.15551 0.1945,0.99589 2.51473,2.39528 5.82332,3.5122 6.31995,2.1335 8,3.90823 8,8.45084 0,4.70397 -3.7914,7.38914 -10.38486,7.35484 -2.98038,-0.0155 -6.23111,-0.71894 -7.78915,-1.68551 z m 29.48938,0.70514 c -3.2958,-1.32791 -4.31537,-4.14591 -4.31537,-11.92728 0,-5.61399 -0.30819,-7.06574 -1.5,-7.06574 -1.04762,0 -1.5,-1.05556 -1.5,-3.5 0,-2.44444 0.45238,-3.5 1.5,-3.5 1.04762,0 1.5,-1.05556 1.5,-3.5 0,-3.41667 0.0952,-3.5 4,-3.5 3.90476,0 4,0.0833 4,3.5 0,3.06667 0.30952,3.5 2.5,3.5 2.19048,0 2.5,0.43333 2.5,3.5 0,3.08415 -0.30271,3.5 -2.54772,3.5 -2.49029,0 -2.541,0.14088 -2.25,6.25 0.28532,5.98979 0.41221,6.26317 3.04772,6.56642 2.40462,0.27668 2.75,0.74766 2.75,3.75 0,3.31229 -0.13246,3.43134 -3.75,3.37019 -2.0625,-0.0349 -4.73308,-0.45948 -5.93463,-0.94359 z m 13.68463,-12.49302 v -13.5 h 4 4 v 13.5 13.5 h -4 -4 z m 15,0 v -13.5 h 4 c 2.95365,0 4,0.40722 4,1.5567 0,1.40894 0.21096,1.40894 2.22251,0 3.73417,-2.61551 9.48367,-2.00436 12.85441,1.36638 2.86229,2.86228 2.92308,3.14305 2.92308,13.5 v 10.57692 h -4 -4 v -8.8 c 0,-9.53379 -0.74384,-11.2 -5,-11.2 -4.25616,0 -5,1.66621 -5,11.2 v 8.8 h -4 -4 z m 68.77514,11.9412 c -2.67026,-1.4491 -4.77514,-4.2594 -4.77514,-6.37546 0,-1.70718 7.6932,-1.30764 8.36163,0.43426 0.34062,0.88764 1.84306,1.5 3.68031,1.5 5.24503,0 3.38746,-3.1955 -3.05379,-5.25333 -3.01848,-0.96433 -6.05065,-2.51283 -6.73815,-3.44113 -2.02696,-2.73689 -1.48607,-7.16038 1.20455,-9.85099 2.02397,-2.02398 3.44081,-2.45455 8.07692,-2.45455 4.88087,0 6.00788,0.38551 8.54545,2.92308 3.99738,3.99737 3.84185,6.07692 -0.45448,6.07692 -1.85765,0 -3.93775,-0.675 -4.62244,-1.5 -0.68469,-0.825 -2.23979,-1.5 -3.45578,-1.5 -5.35483,0 -3.45776,3.41619 2.82227,5.08224 7.01057,1.85986 10.02236,6.13489 8.01233,11.37296 -1.59971,4.16878 -12.13209,5.95532 -17.60368,2.986 z m -82.57514,-29.6412 c -3.57431,-3.57431 0.72854,-9.06485 5.42649,-6.92432 4.21235,1.91927 2.58821,8.12432 -2.12649,8.12432 -1.155,0 -2.64,-0.54 -3.3,-1.2 z"
       id="path186" />
  </g>
</svg>
